# Blender v2.79 (sub 0) OBJ File: ''
# www.blender.org
mtllib table.mtl
o Cube_Cube.001
v -1.657124 0.675282 1.074451
v -1.657124 1.000000 1.074451
v -1.657124 0.675282 0.741118
v -1.657124 1.000000 0.741118
v -1.323791 0.675282 1.074451
v -1.323791 1.000000 1.074451
v -1.323791 1.000000 0.741118
v -1.323791 0.675282 0.741118
v -1.657124 -1.098959 0.741118
v -1.657124 -1.098959 1.074451
v -1.323791 -1.098959 0.741118
v -1.323791 -1.098959 1.074451
v -1.854123 0.675282 0.872450
v -1.854123 0.675282 1.271450
v -1.854123 1.000000 1.271450
v -1.455124 1.000000 1.271450
v -1.854123 1.000000 0.872450
v -1.455124 0.675282 1.271450
v -1.628005 -1.156144 0.770237
v -1.628005 -1.156144 1.045331
v -1.352911 -1.156144 0.770237
v -1.352911 -1.156144 1.045331
v 1.657124 0.675282 1.074451
v 1.657124 1.000000 1.074451
v 1.657124 0.675282 0.741118
v 1.657124 1.000000 0.741118
v 1.323791 0.675282 1.074451
v 1.323791 1.000000 1.074451
v 1.323791 1.000000 0.741118
v 1.323791 0.675282 0.741118
v 1.657124 -1.098959 0.741118
v 1.657124 -1.098959 1.074451
v 1.323791 -1.098959 0.741118
v 1.323791 -1.098959 1.074451
v 1.854123 0.675282 0.872450
v 1.854123 0.675282 1.271450
v 1.854123 1.000000 1.271450
v 1.455124 1.000000 1.271450
v 1.854123 1.000000 0.872450
v 1.455124 0.675282 1.271450
v 0.000000 0.675282 1.074451
v 0.000000 1.000000 1.074451
v 0.000000 1.000000 0.741118
v 0.000000 0.675282 0.741118
v 0.000000 0.675282 1.271450
v 0.000000 1.000000 1.271450
v 1.628005 -1.156144 0.770237
v 1.628005 -1.156144 1.045331
v 1.352911 -1.156144 0.770237
v 1.352911 -1.156144 1.045331
v -1.657124 0.675282 -1.074451
v -1.657124 1.000000 -1.074451
v -1.657124 0.675282 -0.741118
v -1.657124 1.000000 -0.741118
v -1.323791 0.675282 -1.074451
v -1.323791 1.000000 -1.074451
v -1.323791 1.000000 -0.741118
v -1.323791 0.675282 -0.741118
v -1.657124 -1.098959 -0.741118
v -1.657124 -1.098959 -1.074451
v -1.323791 -1.098959 -0.741118
v -1.323791 -1.098959 -1.074451
v -1.854123 0.675282 -0.872450
v -1.854123 0.675282 -1.271450
v -1.854123 1.000000 -1.271450
v -1.455124 1.000000 -1.271450
v -1.854123 1.000000 -0.872450
v -1.455124 0.675282 -1.271450
v -1.657124 0.675282 0.000000
v -1.657124 1.000000 0.000000
v -1.323791 0.675282 0.000000
v -1.323791 1.000000 0.000000
v -1.854123 0.675282 0.000000
v -1.854123 1.000000 0.000000
v -1.628005 -1.156144 -0.770237
v -1.628005 -1.156144 -1.045331
v -1.352911 -1.156144 -0.770237
v -1.352911 -1.156144 -1.045331
v 1.657124 0.675282 -1.074451
v 1.657124 1.000000 -1.074451
v 1.657124 0.675282 -0.741118
v 1.657124 1.000000 -0.741118
v 1.323791 0.675282 -1.074451
v 1.323791 1.000000 -1.074451
v 1.323791 1.000000 -0.741118
v 1.323791 0.675282 -0.741118
v 1.657124 -1.098959 -0.741118
v 1.657124 -1.098959 -1.074451
v 1.323791 -1.098959 -0.741118
v 1.323791 -1.098959 -1.074451
v 1.854123 0.675282 -0.872450
v 1.854123 0.675282 -1.271450
v 1.854123 1.000000 -1.271450
v 1.455124 1.000000 -1.271450
v 1.854123 1.000000 -0.872450
v 1.455124 0.675282 -1.271450
v 0.000000 0.675282 -1.074451
v 0.000000 1.000000 -1.074451
v 0.000000 1.000000 -0.741118
v 0.000000 0.675282 -0.741118
v 0.000000 0.675282 -1.271450
v 0.000000 1.000000 -1.271450
v 1.657124 0.675282 0.000000
v 1.657124 1.000000 0.000000
v 1.323791 0.675282 0.000000
v 1.323791 1.000000 0.000000
v 1.854123 0.675282 0.000000
v 1.854123 1.000000 0.000000
v 0.000000 1.000000 0.000000
v 0.000000 0.675282 0.000000
v 1.628005 -1.156144 -0.770237
v 1.628005 -1.156144 -1.045331
v 1.352911 -1.156144 -0.770237
v 1.352911 -1.156144 -1.045331
vn 0.0000 1.0000 0.0000
vn 0.0000 -1.0000 0.0000
vn 0.8911 -0.4538 0.0000
vn -1.0000 0.0000 0.0000
vn 0.0000 0.0000 -1.0000
vn 1.0000 0.0000 0.0000
vn 0.0000 0.0000 1.0000
vn 0.0000 -0.4538 -0.8911
vn 0.0000 -0.4538 0.8911
vn -0.8911 -0.4538 0.0000
usemtl None
s off
f 2//1 4//1 17//1 15//1
f 69//2 3//2 13//2 73//2
f 42//1 6//1 16//1 46//1
f 7//1 4//1 2//1 6//1
f 72//1 70//1 4//1 7//1
f 69//2 71//2 8//2 3//2
f 109//1 72//1 7//1 43//1
f 43//1 7//1 6//1 42//1
f 6//1 2//1 15//1 16//1
f 11//3 12//3 22//3 21//3
f 1//4 3//4 9//4 10//4
f 3//5 8//5 11//5 9//5
f 8//6 5//6 12//6 11//6
f 5//7 1//7 10//7 12//7
f 18//7 16//7 15//7 14//7
f 14//4 15//4 17//4 13//4
f 45//7 46//7 16//7 18//7
f 3//2 1//2 14//2 13//2
f 1//2 5//2 18//2 14//2
f 5//2 41//2 45//2 18//2
f 8//2 44//2 41//2 5//2
f 71//2 110//2 44//2 8//2
f 4//1 70//1 74//1 17//1
f 13//4 17//4 74//4 73//4
f 19//2 21//2 22//2 20//2
f 9//8 11//8 21//8 19//8
f 12//9 10//9 20//9 22//9
f 10//10 9//10 19//10 20//10
f 24//1 37//1 39//1 26//1
f 103//2 107//2 35//2 25//2
f 42//1 46//1 38//1 28//1
f 29//1 28//1 24//1 26//1
f 106//1 29//1 26//1 104//1
f 103//2 25//2 30//2 105//2
f 109//1 43//1 29//1 106//1
f 43//1 42//1 28//1 29//1
f 28//1 38//1 37//1 24//1
f 33//10 49//10 50//10 34//10
f 23//6 32//6 31//6 25//6
f 25//5 31//5 33//5 30//5
f 30//4 33//4 34//4 27//4
f 27//7 34//7 32//7 23//7
f 40//7 36//7 37//7 38//7
f 36//6 35//6 39//6 37//6
f 45//7 40//7 38//7 46//7
f 25//2 35//2 36//2 23//2
f 23//2 36//2 40//2 27//2
f 27//2 40//2 45//2 41//2
f 30//2 27//2 41//2 44//2
f 105//2 30//2 44//2 110//2
f 26//1 39//1 108//1 104//1
f 35//6 107//6 108//6 39//6
f 47//2 48//2 50//2 49//2
f 31//8 47//8 49//8 33//8
f 34//9 50//9 48//9 32//9
f 32//3 48//3 47//3 31//3
f 52//1 65//1 67//1 54//1
f 69//2 73//2 63//2 53//2
f 98//1 102//1 66//1 56//1
f 57//1 56//1 52//1 54//1
f 72//1 57//1 54//1 70//1
f 69//2 53//2 58//2 71//2
f 109//1 99//1 57//1 72//1
f 99//1 98//1 56//1 57//1
f 56//1 66//1 65//1 52//1
f 61//3 77//3 78//3 62//3
f 51//4 60//4 59//4 53//4
f 53//7 59//7 61//7 58//7
f 58//6 61//6 62//6 55//6
f 55//5 62//5 60//5 51//5
f 68//5 64//5 65//5 66//5
f 64//4 63//4 67//4 65//4
f 101//5 68//5 66//5 102//5
f 53//2 63//2 64//2 51//2
f 51//2 64//2 68//2 55//2
f 55//2 68//2 101//2 97//2
f 58//2 55//2 97//2 100//2
f 71//2 58//2 100//2 110//2
f 54//1 67//1 74//1 70//1
f 63//4 73//4 74//4 67//4
f 75//2 76//2 78//2 77//2
f 59//9 75//9 77//9 61//9
f 62//8 78//8 76//8 60//8
f 60//10 76//10 75//10 59//10
f 80//1 82//1 95//1 93//1
f 103//2 81//2 91//2 107//2
f 98//1 84//1 94//1 102//1
f 85//1 82//1 80//1 84//1
f 106//1 104//1 82//1 85//1
f 103//2 105//2 86//2 81//2
f 109//1 106//1 85//1 99//1
f 99//1 85//1 84//1 98//1
f 84//1 80//1 93//1 94//1
f 89//10 90//10 114//10 113//10
f 79//6 81//6 87//6 88//6
f 81//7 86//7 89//7 87//7
f 86//4 83//4 90//4 89//4
f 83//5 79//5 88//5 90//5
f 96//5 94//5 93//5 92//5
f 92//6 93//6 95//6 91//6
f 101//5 102//5 94//5 96//5
f 81//2 79//2 92//2 91//2
f 79//2 83//2 96//2 92//2
f 83//2 97//2 101//2 96//2
f 86//2 100//2 97//2 83//2
f 105//2 110//2 100//2 86//2
f 82//1 104//1 108//1 95//1
f 91//6 95//6 108//6 107//6
f 111//2 113//2 114//2 112//2
f 87//9 89//9 113//9 111//9
f 90//8 88//8 112//8 114//8
f 88//3 87//3 111//3 112//3
